<svg width="96" height="37" viewBox="0 0 96 37" fill="none" xmlns="http://www.w3.org/2000/svg">
<g clip-path="url(#clip0_2362_159)">
<mask id="mask0_2362_159" style="mask-type:luminance" maskUnits="userSpaceOnUse" x="0" y="0" width="96" height="37">
<path d="M96 0.799072H0V36.7991H96V0.799072Z" fill="white"/>
</mask>
<g mask="url(#mask0_2362_159)">
<path d="M50.5928 10.3167C50.5928 11.4006 49.7231 12.2738 48.6434 12.2738C47.5637 12.2738 46.694 11.4006 46.694 10.3167C46.694 9.23271 47.5337 8.35951 48.6434 8.35951C49.753 8.38962 50.5928 9.26282 50.5928 10.3167ZM42.5553 14.2611C42.5553 14.4417 42.5553 14.7428 42.5553 14.7428C42.5553 14.7428 41.6256 13.5384 39.6462 13.5384C36.3772 13.5384 33.828 16.0376 33.828 19.5002C33.828 22.9328 36.3472 25.462 39.6462 25.462C41.6556 25.462 42.5553 24.2275 42.5553 24.2275V24.7394C42.5553 24.9803 42.7352 25.1609 42.9752 25.1609H45.4044V13.8395C45.4044 13.8395 43.1851 13.8395 42.9752 13.8395C42.7352 13.8395 42.5553 14.0503 42.5553 14.2611ZM42.5553 21.5176C42.1054 22.18 41.2057 22.7521 40.1261 22.7521C38.2067 22.7521 36.7371 21.5477 36.7371 19.5002C36.7371 17.4528 38.2067 16.2484 40.1261 16.2484C41.1757 16.2484 42.1354 16.8506 42.5553 17.4829V21.5176ZM47.2038 13.8395H50.0829V25.1609H47.2038V13.8395ZM90.2104 13.5384C88.231 13.5384 87.3013 14.7428 87.3013 14.7428V8.38962H84.4222V25.1609C84.4222 25.1609 86.6415 25.1609 86.8515 25.1609C87.0914 25.1609 87.2713 24.9502 87.2713 24.7394V24.2275C87.2713 24.2275 88.201 25.462 90.1804 25.462C93.4494 25.462 95.9986 22.9328 95.9986 19.5002C95.9986 16.0677 93.4494 13.5384 90.2104 13.5384ZM89.7306 22.722C88.6209 22.722 87.7512 22.1499 87.3013 21.4875V17.4528C87.7512 16.8506 88.7109 16.2182 89.7306 16.2182C91.65 16.2182 93.1195 17.4226 93.1195 19.4701C93.1195 21.5176 91.65 22.722 89.7306 22.722ZM82.9227 18.4464V25.1911H80.0436V18.7776C80.0436 16.9108 79.4438 16.158 77.8243 16.158C76.9545 16.158 76.0548 16.6097 75.485 17.2721V25.1609H72.6059V13.8395H74.8852C75.1251 13.8395 75.3051 14.0503 75.3051 14.2611V14.7428C76.1448 13.8697 77.2544 13.5384 78.3641 13.5384C79.6237 13.5384 80.6734 13.8998 81.5131 14.6224C82.5328 15.4655 82.9227 16.5495 82.9227 18.4464ZM65.6181 13.5384C63.6387 13.5384 62.709 14.7428 62.709 14.7428V8.38962H59.8299V25.1609C59.8299 25.1609 62.0492 25.1609 62.2591 25.1609C62.4991 25.1609 62.679 24.9502 62.679 24.7394V24.2275C62.679 24.2275 63.6087 25.462 65.5881 25.462C68.8571 25.462 71.4063 22.9328 71.4063 19.5002C71.4363 16.0677 68.8871 13.5384 65.6181 13.5384ZM65.1382 22.722C64.0286 22.722 63.1589 22.1499 62.709 21.4875V17.4528C63.1589 16.8506 64.1186 16.2182 65.1382 16.2182C67.0576 16.2182 68.5272 17.4226 68.5272 19.4701C68.5272 21.5176 67.0576 22.722 65.1382 22.722ZM57.3407 13.5384C58.2104 13.5384 58.6603 13.689 58.6603 13.689V16.3688C58.6603 16.3688 56.261 15.5558 54.7615 17.2721V25.1911H51.8824V13.8395C51.8824 13.8395 54.1017 13.8395 54.3116 13.8395C54.5515 13.8395 54.7315 14.0503 54.7315 14.2611V14.7428C55.2713 14.1105 56.441 13.5384 57.3407 13.5384ZM27.44 24.1372C27.2901 23.7759 27.1401 23.3844 26.9902 23.0532C26.7502 22.5113 26.5103 21.9994 26.3004 21.5176L26.2704 21.4875C24.201 16.971 21.9817 12.3943 19.6425 7.87775L19.5525 7.69709C19.3126 7.24544 19.0726 6.76368 18.8327 6.28191C18.5328 5.73993 18.2329 5.16784 17.753 4.62586C16.7933 3.42145 15.4138 2.75903 13.9442 2.75903C12.4447 2.75903 11.0951 3.42145 10.1054 4.56564C9.65558 5.10762 9.32568 5.67971 9.02577 6.22169C8.78585 6.70346 8.54592 7.18522 8.306 7.63687L8.21602 7.81753C5.90675 12.334 3.65745 16.9108 1.5881 21.4273L1.55811 21.4875C1.34817 21.9693 1.10825 22.4811 0.868321 23.0231C0.718368 23.3543 0.568415 23.7157 0.418462 24.1071C0.0285836 25.2212 -0.0913789 26.275 0.0585742 27.359C0.388471 29.6172 1.888 31.5142 3.95736 32.3573C4.73711 32.6885 5.54686 32.839 6.3866 32.839C6.62652 32.839 6.92643 32.8089 7.16635 32.7788C8.15604 32.6584 9.17573 32.3271 10.1654 31.7551C11.395 31.0625 12.5647 30.0689 13.8843 28.6236C15.2038 30.0689 16.4035 31.0625 17.6031 31.7551C18.5928 32.3271 19.6125 32.6584 20.6022 32.7788C20.8421 32.8089 21.142 32.839 21.3819 32.839C22.2216 32.839 23.0614 32.6885 23.8112 32.3573C25.9105 31.5142 27.38 29.5871 27.7099 27.359C27.9499 26.3051 27.8299 25.2513 27.44 24.1372ZM13.9142 25.7029C12.2948 23.6554 11.2451 21.7284 10.8852 20.1024C10.7352 19.4099 10.7052 18.8077 10.7952 18.2657C10.8552 17.784 11.0351 17.3624 11.2751 17.0011C11.8449 16.1881 12.8046 15.6763 13.9142 15.6763C15.0239 15.6763 16.0136 16.158 16.5534 17.0011C16.7933 17.3624 16.9733 17.784 17.0333 18.2657C17.1232 18.8077 17.0933 19.44 16.9433 20.1024C16.5834 21.6983 15.5337 23.6253 13.9142 25.7029ZM25.8805 27.1181C25.6706 28.6838 24.6209 30.0388 23.1514 30.641C22.4316 30.9421 21.6518 31.0324 20.8721 30.9421C20.1223 30.8518 19.3725 30.6109 18.5928 30.1592C17.5131 29.557 16.4335 28.6236 15.1739 27.2385C17.1532 24.7996 18.3529 22.5715 18.8027 20.5842C19.0127 19.6508 19.0426 18.8077 18.9527 18.0248C18.8327 17.2721 18.5628 16.5796 18.1429 15.9774C17.2132 14.6224 15.6537 13.8395 13.9142 13.8395C12.1748 13.8395 10.6153 14.6525 9.68557 15.9774C9.2657 16.5796 8.99578 17.2721 8.87582 18.0248C8.75586 18.8077 8.78585 19.6809 9.02577 20.5842C9.47563 22.5715 10.7052 24.8297 12.6546 27.2687C11.425 28.6537 10.3154 29.5871 9.23571 30.1893C8.45595 30.641 7.70618 30.8819 6.95642 30.9722C6.14667 31.0625 5.36692 30.9421 4.67713 30.6711C3.20759 30.0689 2.15792 28.7139 1.94798 27.1482C1.85801 26.3955 1.91799 25.6427 2.2179 24.7996C2.30787 24.4985 2.45782 24.1974 2.60778 23.8361C2.81771 23.3543 3.05764 22.8425 3.29756 22.3306L3.32755 22.2704C5.39691 17.784 7.61621 13.2072 9.92549 8.75094L10.0155 8.57028C10.2554 8.11863 10.4953 7.63687 10.7352 7.18522C10.9752 6.70346 11.2451 6.2518 11.575 5.86037C12.2048 5.13773 13.0445 4.7463 13.9742 4.7463C14.9039 4.7463 15.7437 5.13773 16.3735 5.86037C16.7034 6.2518 16.9733 6.70346 17.2132 7.18522C17.4531 7.63687 17.6931 8.11863 17.933 8.57028L18.023 8.75094C20.3022 13.2373 22.5216 17.8141 24.5909 22.3005V22.3306C24.8308 22.8124 25.0408 23.3543 25.2807 23.8361C25.4306 24.1974 25.5806 24.4985 25.6706 24.7996C25.9105 25.5825 26.0005 26.3352 25.8805 27.1181Z" fill="#FF5A5F"/>
</g>
</g>
<defs>
<clipPath id="clip0_2362_159">
<rect width="96" height="36" fill="white" transform="translate(0 0.799072)"/>
</clipPath>
</defs>
</svg>
