<svg width="96" height="38" viewBox="0 0 96 38" fill="none" xmlns="http://www.w3.org/2000/svg">
<path fill-rule="evenodd" clip-rule="evenodd" d="M58.5938 30.9557C53.4799 34.7206 46.0677 36.7293 39.6859 36.7293C30.7376 36.7293 22.6818 33.4235 16.5873 27.9254C16.1084 27.4931 16.5375 26.9038 17.1121 27.2405C23.6892 31.0628 31.8216 33.3623 40.2222 33.3623C45.8876 33.3623 52.12 32.1915 57.8506 29.7619C58.7163 29.3946 59.4403 30.3282 58.5938 30.9557Z" fill="#FF9900"/>
<path fill-rule="evenodd" clip-rule="evenodd" d="M60.7202 28.5281C60.069 27.6941 56.3993 28.1341 54.7521 28.3292C54.2503 28.3904 54.1737 27.9542 54.6257 27.6405C57.5485 25.5859 62.3444 26.1789 62.9037 26.8676C63.463 27.5601 62.7581 32.3619 60.0116 34.6537C59.5902 35.0057 59.188 34.8184 59.3757 34.3516C59.9924 32.8135 61.3753 29.3661 60.7202 28.5281Z" fill="#FF9900"/>
<path fill-rule="evenodd" clip-rule="evenodd" d="M54.8678 13.136V11.1387C54.8678 10.8365 55.0977 10.6337 55.3735 10.6337H64.3256C64.6129 10.6337 64.8427 10.8403 64.8427 11.1387V12.849C64.8389 13.136 64.5976 13.5109 64.1685 14.104L59.5297 20.7193C61.2535 20.6772 63.073 20.9336 64.6359 21.8136C64.9883 22.0125 65.0841 22.3033 65.1109 22.5903V24.7214C65.1109 25.0122 64.7891 25.3527 64.452 25.1767C61.6978 23.7343 58.0396 23.5774 54.9942 25.192C54.684 25.3604 54.3584 25.0237 54.3584 24.7329V22.7089C54.3584 22.3837 54.3622 21.8289 54.6878 21.3353L60.0621 13.6372H55.385C55.0977 13.6372 54.8678 13.4344 54.8678 13.136Z" fill="#221F1F"/>
<path fill-rule="evenodd" clip-rule="evenodd" d="M22.21 25.5961H19.4865C19.226 25.577 19.0191 25.3819 19 25.1332V11.1717C19 10.8924 19.2337 10.6705 19.5248 10.6705H22.0645C22.3288 10.6819 22.5395 10.8847 22.5586 11.1373V12.9623H22.6084C23.2711 11.1985 24.5161 10.3759 26.1939 10.3759C27.8985 10.3759 28.9634 11.1985 29.7295 12.9623C30.3884 11.1985 31.8862 10.3759 33.4912 10.3759C34.6327 10.3759 35.8815 10.8465 36.6438 11.9025C37.5057 13.0771 37.3295 14.7835 37.3295 16.2796L37.3256 25.0911C37.3256 25.3704 37.092 25.5961 36.8008 25.5961H34.0811C33.8091 25.577 33.5908 25.3589 33.5908 25.0911V17.6914C33.5908 17.1022 33.6444 15.6329 33.5142 15.0743C33.3112 14.1369 32.7021 13.8729 31.913 13.8729C31.2541 13.8729 30.5646 14.3129 30.285 15.0169C30.0053 15.7209 30.0321 16.8994 30.0321 17.6914V25.0911C30.0321 25.3704 29.7985 25.5961 29.5074 25.5961H26.7876C26.5118 25.577 26.2973 25.3589 26.2973 25.0911L26.2935 17.6914C26.2935 16.1342 26.5501 13.8423 24.6157 13.8423C22.6582 13.8423 22.7348 16.0768 22.7348 17.6914V25.0911C22.7348 25.3704 22.5012 25.5961 22.21 25.5961Z" fill="#221F1F"/>
<path fill-rule="evenodd" clip-rule="evenodd" d="M72.5489 10.3759C76.5902 10.3759 78.7775 13.8423 78.7775 18.25C78.7775 22.5085 76.3604 25.8869 72.5489 25.8869C68.5804 25.8869 66.4199 22.4205 66.4199 18.1008C66.4199 13.7543 68.6072 10.3759 72.5489 10.3759ZM72.5719 13.2263C70.5646 13.2263 70.4382 15.9582 70.4382 17.6608C70.4382 19.3672 70.4114 23.0097 72.5489 23.0097C74.6596 23.0097 74.7592 20.0712 74.7592 18.2806C74.7592 17.1022 74.7094 15.6942 74.3531 14.5769C74.0467 13.6051 73.4376 13.2263 72.5719 13.2263Z" fill="#221F1F"/>
<path fill-rule="evenodd" clip-rule="evenodd" d="M84.0167 25.5961H81.3046C81.0327 25.577 80.8143 25.3589 80.8143 25.0911L80.8105 11.1258C80.8335 10.8694 81.0596 10.6705 81.3354 10.6705H83.8597C84.0971 10.6819 84.2925 10.8426 84.3461 11.0607V13.1957H84.396C85.1583 11.2865 86.227 10.3759 88.1078 10.3759C89.3298 10.3759 90.5211 10.8159 91.2872 12.0211C91.9997 13.1383 91.9997 15.0169 91.9997 16.3676V25.1561C91.9691 25.401 91.743 25.5961 91.4749 25.5961H88.7438C88.4948 25.577 88.2878 25.3934 88.261 25.1561V17.5728C88.261 16.0462 88.4373 13.8117 86.5564 13.8117C85.8937 13.8117 85.2846 14.2555 84.982 14.9289C84.599 15.7822 84.5492 16.6316 84.5492 17.5728V25.0911C84.5453 25.3704 84.3078 25.5961 84.0167 25.5961Z" fill="#221F1F"/>
<path fill-rule="evenodd" clip-rule="evenodd" d="M47.7302 18.9286C47.7302 19.9884 47.757 20.8722 47.2208 21.8134C46.7879 22.5787 46.0984 23.0493 45.3361 23.0493C44.2903 23.0493 43.6774 22.2534 43.6774 21.0788C43.6774 18.7602 45.7575 18.3393 47.7302 18.3393V18.9286ZM50.4768 25.5592C50.2967 25.7199 50.0363 25.7314 49.8332 25.6242C48.9292 24.8743 48.7645 24.5262 48.2704 23.8107C46.7764 25.3335 45.7153 25.7888 43.7809 25.7888C41.4863 25.7888 39.7051 24.3769 39.7051 21.5494C39.7051 19.3418 40.9003 17.8381 42.6087 17.1035C44.0873 16.4531 46.152 16.3383 47.7302 16.1584V15.8064C47.7302 15.1598 47.78 14.3946 47.397 13.836C47.0675 13.3348 46.4317 13.1282 45.8686 13.1282C44.8305 13.1282 43.9073 13.66 43.6813 14.7619C43.6353 15.0068 43.4553 15.2478 43.2063 15.2593L40.567 14.9762C40.3448 14.9264 40.0958 14.7466 40.1609 14.4061C40.7662 11.2075 43.6621 10.2433 46.2516 10.2433C47.577 10.2433 49.3084 10.5953 50.3542 11.5977C51.6796 12.8336 51.5532 14.4826 51.5532 16.2771V20.5164C51.5532 21.7905 52.0818 22.3491 52.5798 23.0378C52.7522 23.2827 52.7905 23.5773 52.5683 23.7609C52.0128 24.2239 51.0245 25.0848 50.4806 25.5669L50.4768 25.5592Z" fill="#221F1F"/>
<path fill-rule="evenodd" clip-rule="evenodd" d="M12.0251 18.9286C12.0251 19.9884 12.0519 20.8722 11.5157 21.8134C11.0828 22.5787 10.3971 23.0493 9.631 23.0493C8.58524 23.0493 7.97617 22.2534 7.97617 21.0788C7.97617 18.7602 10.0562 18.3393 12.0251 18.3393V18.9286ZM14.7717 25.5592C14.5916 25.7199 14.3312 25.7314 14.1281 25.6242C13.2241 24.8743 13.0632 24.5262 12.5652 23.8107C11.0713 25.3335 10.0141 25.7888 8.07577 25.7888C5.78506 25.7888 4 24.3769 4 21.5494C4 19.3418 5.19898 17.8381 6.9036 17.1035C8.38222 16.4531 10.4469 16.3383 12.0251 16.1584V15.8064C12.0251 15.1598 12.0749 14.3946 11.6957 13.836C11.3624 13.3348 10.7266 13.1282 10.1673 13.1282C9.12919 13.1282 8.20218 13.66 7.97617 14.7619C7.93021 15.0068 7.75017 15.2478 7.50501 15.2593L4.86189 14.9762C4.63971 14.9264 4.39455 14.7466 4.45584 14.4061C5.06491 11.2075 7.95702 10.2433 10.5465 10.2433C11.8719 10.2433 13.6033 10.5953 14.6491 11.5977C15.9745 12.8336 15.8481 14.4826 15.8481 16.2771V20.5164C15.8481 21.7905 16.3767 22.3491 16.8747 23.0378C17.0509 23.2827 17.0892 23.5773 16.867 23.7609C16.3116 24.2239 15.3233 25.0848 14.7793 25.5669L14.7717 25.5592Z" fill="#221F1F"/>
</svg>
