<svg width="84" height="37" viewBox="0 0 84 37" fill="none" xmlns="http://www.w3.org/2000/svg">
<g clip-path="url(#clip0_2362_121)">
<mask id="mask0_2362_121" style="mask-type:luminance" maskUnits="userSpaceOnUse" x="0" y="0" width="84" height="37">
<path d="M84 0.799072H0V36.7991H84V0.799072Z" fill="white"/>
</mask>
<g mask="url(#mask0_2362_121)">
<path d="M34.2907 9.14907C34.2907 9.14907 34.6165 8.66196 34.888 8.28309C35.3767 7.6336 36.2454 6.7135 36.9513 6.11814C37.1685 5.95576 37.3857 5.73927 37.3857 5.73927C37.3857 5.73927 37.0056 5.79339 36.7884 5.84752C36.2997 5.95576 35.5396 6.44288 35.1595 6.76762C34.5622 7.30886 33.8563 8.12072 34.1821 8.93258C34.2364 8.9867 34.2907 9.14907 34.2907 9.14907ZM37.7115 10.0692C38.6888 10.0151 39.6119 9.74443 40.4264 9.25732C41.2408 8.7702 42.4897 7.90422 42.3811 6.82175C42.3268 6.497 42.1096 6.22638 41.8381 6.11814C41.458 5.95576 41.2951 6.00989 40.8064 6.11814C40.4807 6.22638 40.3178 6.28051 39.992 6.44288C39.0146 6.98412 37.6572 8.17484 36.9513 9.09495C36.7884 9.31144 36.6255 9.58206 36.4626 9.74443C36.354 9.85268 36.2997 9.96093 36.2997 9.96093C36.354 10.0692 37.3314 10.0692 37.7115 10.0692ZM35.2138 11.8553C35.1052 11.9635 34.9966 12.2342 34.888 12.3965C34.8337 12.5048 34.7251 12.613 34.6708 12.6672C34.3993 12.8295 34.1821 12.8836 33.9649 12.6672C33.6391 12.3424 33.422 11.9094 33.422 11.4223V10.8269C33.3677 10.5563 33.0962 10.2316 32.9333 9.96093C32.7704 9.63618 32.6075 9.09495 32.6075 8.71608C32.5532 7.57948 33.1505 6.55113 33.9106 5.73927C34.6708 4.92741 35.7025 4.2238 36.7884 3.79081C37.8201 3.35782 39.3404 3.03308 40.4807 3.46607C40.8607 3.57431 41.3494 3.89906 41.6209 4.2238C41.6752 4.27792 41.7295 4.38617 41.7838 4.38617C41.8381 4.4403 41.9467 4.4403 42.0553 4.4403C42.4354 4.49442 42.924 4.76504 43.1412 4.98153C43.5756 5.3604 43.7928 5.68514 43.9014 6.22638C44.1186 7.25474 43.5213 8.39134 42.8698 9.09495C41.7295 10.2857 40.535 11.0976 39.0689 11.6929C38.4173 11.9635 37.3857 12.18 36.6798 12.1259C36.4626 12.1259 36.1911 12.0718 35.9739 12.0177C35.8654 12.0177 35.431 11.9094 35.3767 11.8553C35.3224 11.9094 35.2681 11.8553 35.2138 11.8553ZM36.5712 14.1285C36.6255 14.1285 36.6798 14.1826 36.7341 14.1826C37.2771 14.3991 37.4943 14.8862 37.6029 15.3733C37.9287 16.6182 38.0373 19.3244 38.0916 20.3527C38.1459 21.1646 38.1459 21.9223 38.2002 22.7342C38.2545 23.3837 38.2545 24.3038 38.1459 24.8991C38.0916 25.1156 37.9287 25.3863 37.7115 25.5486C37.44 25.711 36.897 25.711 36.5712 25.6569C35.8111 25.4945 35.5396 25.0074 35.431 24.2497C35.1595 22.4636 35.3224 18.9455 35.431 17.43C35.4853 16.9429 35.6482 15.3733 35.9196 14.7239C36.0282 14.5615 36.2454 14.0744 36.5712 14.1285ZM13.0603 16.8347C13.0603 16.8347 11.9201 16.8888 11.1599 16.9971C10.1826 17.1053 8.33643 17.43 7.25048 17.8089C6.92469 17.9172 6.27312 18.1878 6.21882 18.5125C6.16452 18.8373 6.38171 19.1079 6.5989 19.3785C6.7618 19.5409 7.52196 20.2986 7.73916 20.461C8.66222 21.2187 10.5083 22.4094 11.8658 22.9507C12.3545 23.1672 13.1146 23.4378 13.1146 23.4378C13.1146 23.4378 13.0603 21.2187 13.0603 19.0538C13.006 17.9713 13.0603 16.8347 13.0603 16.8347ZM33.7477 17.7007C33.802 18.296 33.6391 19.4326 33.6391 19.5409C33.5849 19.8656 33.3134 20.6775 33.3134 20.7316C33.0962 21.2187 32.879 21.5976 32.6618 21.9765C32.2817 22.6259 31.4129 23.7084 30.87 24.1414C28.9153 25.8192 25.9289 26.7935 23.3226 27.0641C21.5851 27.2806 19.576 27.2265 17.6756 26.9017C17.0241 26.7935 16.101 26.577 16.101 26.577C16.101 26.577 16.101 26.9558 16.0467 27.2265C16.0467 27.3347 15.9381 27.6595 15.8838 27.7677C15.7752 28.0383 15.5037 28.2007 15.2322 28.2548C14.8522 28.3089 14.4178 28.3631 14.092 28.2007C13.4947 27.9301 13.2775 27.3888 13.1689 26.7935C13.0603 26.3064 13.006 25.3863 13.006 25.3863C13.006 25.3863 12.5716 25.1698 12.1916 25.0074C11.0513 24.4661 9.96536 23.7625 9.0423 23.0589C8.77081 22.8424 7.68486 21.9223 7.41337 21.7058C6.7075 21.0563 6.11022 20.4069 5.62155 19.5409C5.24146 18.8914 5.13287 18.296 5.40436 17.5924C5.78444 16.6182 7.19618 15.9146 8.11924 15.4816C8.82511 15.1568 10.997 14.4532 11.8658 14.345C12.3002 14.2909 12.9517 14.1826 13.006 14.1285C13.006 14.1285 13.0603 14.1285 13.0603 14.0744C13.0603 14.0202 13.1146 13.1001 13.1146 12.7213C13.1146 12.3965 13.3861 10.1233 13.4404 9.63618C13.4947 9.36557 13.6576 8.39134 13.8748 8.12072C13.9834 7.95835 14.2549 7.95835 14.4178 8.06659C15.4494 8.71608 15.7752 10.9352 15.8295 12.0718C15.8838 12.7754 15.8838 13.8038 15.8838 13.8038C15.8838 13.8038 17.0784 13.7496 17.7842 13.8038C18.4901 13.8038 19.2503 13.912 20.0104 14.0744C20.9335 14.2367 22.7796 14.6156 23.8113 15.1568C24.68 15.5898 25.4945 16.3476 25.766 17.1053C25.9832 17.8089 25.9832 18.296 25.6031 18.9455C25.1687 19.6491 24.4085 20.1904 23.5941 20.2445C23.3769 20.2445 22.4538 20.1362 22.1823 19.9197C22.0737 19.8115 22.0737 19.7033 22.1823 19.595C22.2366 19.5409 22.6167 19.3244 22.8882 19.2161C22.9968 19.162 23.1054 19.0538 23.214 18.9996C23.4312 18.8373 23.5941 18.6208 23.5941 18.4043C23.5398 18.0795 23.2683 17.9172 22.9425 17.8089C21.5308 17.2677 18.653 16.7806 17.2412 16.6723C16.6983 16.6182 15.9381 16.6182 15.9381 16.6182L16.101 24.2497C16.101 24.2497 16.7526 24.3579 17.2412 24.4661C17.5127 24.5203 18.7616 24.6285 19.0874 24.6285C21.5851 24.6826 24.2999 24.4661 26.5805 23.3837C27.5578 22.8966 28.4809 22.3553 29.1867 21.5435C30.1098 20.5151 30.5985 19.0538 30.4356 17.5924C30.2727 15.9687 29.1324 14.0202 28.2094 12.8295C25.766 9.74443 21.6394 7.14649 17.9471 5.68514C14.2006 4.16968 10.5083 3.24957 6.54461 3.14132C5.51295 3.0872 3.28675 3.14132 2.14649 3.46607C1.9836 3.52019 1.82071 3.57431 1.65782 3.57431C1.54922 3.57431 1.33203 3.68256 1.27773 3.73669C1.22343 3.73669 1.22343 3.79081 1.22343 3.79081C1.22343 3.79081 1.27773 3.84493 1.33203 3.84493C1.44062 3.89906 1.9293 3.95318 2.20079 3.95318C2.41798 4.0073 2.68947 4.11555 2.74377 4.27792C2.85236 4.4403 2.85236 4.54854 2.74377 4.71091C2.47228 5.03566 1.54922 4.98153 1.11484 4.92741C0.680457 4.87329 0.13748 4.71091 0.0288849 4.33205C-0.0797105 3.89906 0.13748 3.46607 0.354671 3.03308C0.84335 2.22122 1.49492 1.78823 2.47228 1.51761C3.82972 1.13874 5.62155 0.868124 6.92469 0.814C9.85677 0.705752 12.6802 1.19287 15.558 2.05885C17.187 2.54596 19.3589 3.35782 20.9335 4.11555C22.0737 4.65679 23.8656 5.63102 24.8429 6.33463C25.1687 6.55113 27.0148 7.90422 27.2863 8.12072C27.8836 8.60783 28.6438 9.31144 29.241 9.85268C30.327 10.9352 31.6844 12.613 32.336 13.912C32.4989 14.2367 32.6075 14.5615 32.8247 14.8862C32.879 14.9945 33.2048 15.7522 33.2591 15.9687C33.3134 16.1852 33.3677 16.5099 33.3677 16.5099C33.6391 16.8347 33.7477 17.4842 33.7477 17.7007ZM46.5077 18.296H46.6163C47.5394 18.4043 48.4081 18.5667 49.114 18.8914C49.7656 19.162 50.0913 19.5409 50.4714 20.1362C50.9601 21.1105 51.0144 22.4094 50.58 23.4378C50.2542 24.1955 49.4941 24.7909 48.7882 25.1698C48.0823 25.4945 47.3765 25.6569 46.562 25.7651C45.1503 25.9275 43.5756 25.6569 42.3268 25.0074C41.5666 24.6285 40.6435 23.979 40.1549 23.1672C39.8291 22.5718 39.8291 21.76 40.2635 21.2187C40.915 20.2986 42.3811 20.1362 43.4127 20.1362C44.2272 20.1904 45.6932 20.4069 46.5077 20.6775C46.7249 20.7316 47.5394 21.0563 47.6479 21.2187C47.7565 21.327 47.8108 21.4352 47.7565 21.5976C47.5937 22.1388 46.2362 22.4094 45.8561 22.4636C44.8245 22.6259 44.2815 22.2471 43.1412 21.76C42.8698 21.6517 42.4897 21.5435 42.1639 21.4893C41.6209 21.4352 41.0236 21.5976 40.915 22.1388C40.8607 22.4094 41.1865 22.7342 41.458 22.8424C42.0553 23.1131 42.5983 23.2213 43.1955 23.2213C44.9874 23.2754 47.0507 22.9507 48.5167 21.9223C48.7339 21.76 48.8968 21.5435 48.8968 21.327C48.8968 21.2728 48.8425 21.0022 48.7339 20.9481H48.6796C48.6253 20.9481 48.571 20.8399 48.5167 20.7857C48.4081 20.6775 47.9737 20.461 47.9194 20.461C46.9421 20.028 45.096 19.8656 44.1186 19.7574C43.1412 19.6491 41.5666 19.5409 41.1865 19.4868C40.8064 19.4326 40.3721 19.3785 40.0463 19.2161C39.7205 19.0538 39.3947 18.729 39.2861 18.3502C39.1232 17.6465 39.3404 16.8347 39.7205 16.2934C40.6978 14.8862 43.0326 14.345 44.7702 14.1285C46.4534 13.912 49.1683 13.912 50.7972 14.778C51.0687 14.8862 51.1773 15.0486 51.123 15.3192C51.0144 15.8063 50.6343 16.1311 50.1456 16.2934C49.657 16.4558 48.6253 16.5099 48.1909 16.5099C46.1819 16.6182 43.7928 16.5641 41.8924 17.0512C41.7295 17.1053 41.5123 17.1594 41.4037 17.2677C41.1322 17.5924 41.9467 17.7007 42.1096 17.7007H42.2182L46.5077 18.296ZM52.6976 25.6569C51.8832 25.3863 51.7203 24.0873 51.666 23.4378C51.5574 21.327 52.1004 18.3502 52.8062 16.3476C53.0234 15.7522 53.2949 14.8321 53.9465 14.8862C54.3809 14.9404 54.7066 15.2651 54.9238 15.5898C55.5754 16.4558 56.3899 17.6465 56.9329 18.5125C57.5301 19.4326 58.1274 20.4069 58.7247 21.2187C58.779 21.327 58.8876 21.4352 58.9419 21.4893C59.0505 21.5976 59.1591 21.5976 59.1591 21.4893C59.1591 21.4352 59.1591 20.4069 59.1048 20.1904C59.0505 19.8656 59.0505 19.595 58.9962 19.2703C58.8876 18.4043 58.6161 17.2136 58.3989 16.4017C58.1817 15.4816 57.8559 14.5615 57.6387 13.6414C57.5844 13.3708 57.5301 13.046 57.5301 12.7754C57.5301 12.3965 57.8016 12.18 58.1817 12.2883C58.9962 12.5589 60.0821 14.345 60.4079 14.9404C60.5165 15.1568 60.9509 16.1852 61.0595 16.5099C61.3853 17.5383 61.6025 18.4584 61.711 19.595C61.8196 20.6775 61.711 22.2471 61.2767 23.2754C61.1138 23.6543 60.788 24.1955 60.4622 24.4661C60.0278 24.8991 59.1048 25.2239 58.5075 24.845C57.8559 24.4662 56.7157 22.5718 56.5528 22.2471C55.9012 21.1105 54.8152 18.9455 54.6523 18.729C54.598 18.6749 54.5438 18.6208 54.4895 18.6208C54.4352 18.6208 54.3809 18.729 54.3809 18.8373C54.2723 19.4868 54.218 22.4094 54.218 22.5177C54.218 23.0048 54.1637 24.2497 54.0551 24.845C53.9465 25.2239 53.8922 25.5486 53.5121 25.711C53.1863 25.8192 53.0234 25.7651 52.6976 25.6569ZM63.7201 25.4945C63.6115 25.4404 63.5029 25.278 63.3943 25.1698C63.3943 25.1698 63.0685 24.7368 63.0142 24.5744C62.9599 24.4662 62.9056 24.3579 62.9056 24.3038C62.6341 23.6002 62.6341 22.9507 62.797 22.2471C62.9599 21.5435 63.0685 21.5435 63.3943 20.6234C63.3943 20.5692 63.4486 20.5151 63.4486 20.461C63.4486 20.3527 63.2314 19.4868 63.2314 19.2161C63.2314 18.7831 63.5572 18.5125 64.1001 18.4584H64.2087C64.4259 18.4043 64.5888 17.9713 64.6974 17.6465C64.8603 17.1594 65.1318 16.4558 65.1318 16.4558C65.1318 16.4558 64.4259 16.2934 64.0458 16.1852C63.6115 16.0228 63.34 15.8063 63.1228 15.4275C62.9056 14.9945 63.0685 14.7239 63.5029 14.6156C63.6658 14.5615 65.0232 14.2909 65.4576 14.2367C66.0006 14.1826 66.4892 14.0744 66.9779 14.0202C67.4123 13.9661 69.4213 13.7496 70.0729 13.7496C71.0503 13.8038 71.7018 14.1826 72.2448 14.9945C72.5706 15.4275 72.7335 15.9687 72.2991 16.2393C71.5932 16.6723 69.3127 16.7264 68.8783 16.7264H67.3037L66.815 18.296H69.367C69.5842 18.296 69.8014 18.296 69.9643 18.3502C70.453 18.4584 70.6159 18.8373 70.6159 19.3244C70.6159 19.9197 70.5073 20.2445 70.0186 20.2986C69.7471 20.3527 66.9236 20.3527 66.5435 20.4069C66.3263 20.461 66.0549 20.461 66.0549 20.461C66.0549 20.461 65.8377 21.0022 65.6748 21.5435C65.5119 22.0847 65.349 22.6801 65.349 22.6801H65.6205C65.8377 22.6801 66.0006 22.6801 66.1635 22.6259C67.0322 22.4636 68.3354 22.3012 69.367 22.1388C69.91 22.0306 70.2358 22.0306 70.5073 22.4094C70.7788 22.7342 70.8874 23.0048 70.9417 23.4378C70.9417 23.8167 70.6702 24.0873 70.2901 24.3579C69.2041 25.2239 67.2494 26.144 65.8377 26.3064C65.1861 26.3605 65.0232 26.3064 64.4259 26.144C64.3173 26.0899 63.9373 25.9275 63.9373 25.9275C64.0458 25.711 63.8287 25.5486 63.7201 25.4945ZM81.6383 17.6465C80.9324 18.2419 79.9551 19.4868 79.5207 20.1362C78.9234 21.0022 78.3804 21.9765 77.8375 22.7342C77.7289 22.8966 77.3488 23.4919 77.4031 23.546C77.4031 23.6002 77.7832 23.6002 78.1632 23.4919C78.9234 23.3837 79.9551 22.8424 80.5523 22.3553C81.4211 21.6517 82.0184 20.7316 82.2899 19.6491C82.3985 19.162 82.4528 18.1337 82.127 17.6465C81.9641 17.5924 81.7469 17.5383 81.6383 17.6465ZM75.8284 26.577C75.8284 26.577 75.6113 27.2806 75.4484 27.7677C75.1769 28.6878 74.5253 31.1234 74.3624 31.9352C74.1452 33.0718 73.4936 36.0487 73.4936 36.1028C73.4393 36.211 73.4394 36.211 73.3308 36.2651C73.0593 36.4275 72.9507 36.3734 72.6249 36.211C72.1905 35.9945 71.8647 35.778 71.5389 35.345C70.9417 34.5332 71.0503 33.0177 71.2131 32.1517C71.6475 29.0126 72.0819 27.6595 73.2765 24.5744V24.4661C72.8964 23.6543 72.6792 22.7342 72.6792 21.9765C72.6792 19.5409 74.0909 17.1594 75.6656 15.211C75.7741 15.0486 76.5343 14.1285 76.9144 14.1826C77.2402 14.1826 77.3488 14.6156 77.2945 14.9404C77.1316 16.077 76.3171 17.2136 75.7742 18.1337C75.1769 19.2161 75.014 19.6491 74.7425 20.6234C74.6882 20.7857 74.5796 21.4893 74.5796 21.5976C74.5796 21.8682 74.6339 22.1929 74.6339 22.1929C74.6339 22.1929 75.6113 20.7857 76.2628 19.9739C76.6429 19.4868 76.8601 19.2161 77.1859 18.8373C77.5117 18.5125 78.6519 17.2677 78.9777 16.9971C79.6836 16.3476 80.0094 16.077 80.7695 15.644C81.3668 15.3192 81.9098 15.2651 82.5071 15.644C83.4301 16.2393 83.8645 17.5383 83.9731 18.5666C84.0817 19.8115 83.8645 21.2187 83.2672 22.3012C82.6157 23.6002 81.6926 24.5203 80.498 25.278C79.2492 26.0899 77.7832 26.6852 76.3714 26.6311C76.0456 26.577 75.8284 26.577 75.8284 26.577Z" fill="#025DA6"/>
</g>
</g>
<defs>
<clipPath id="clip0_2362_121">
<rect width="84" height="36" fill="white" transform="translate(0 0.799072)"/>
</clipPath>
</defs>
</svg>
