<svg width="96" height="37" viewBox="0 0 96 37" fill="none" xmlns="http://www.w3.org/2000/svg">
<g clip-path="url(#clip0_2362_148)">
<mask id="mask0_2362_148" style="mask-type:luminance" maskUnits="userSpaceOnUse" x="0" y="0" width="96" height="37">
<path d="M96 0.799072H0V36.7991H96V0.799072Z" fill="white"/>
</mask>
<g mask="url(#mask0_2362_148)">
<path d="M33.8837 20.5955L33.3114 22.2151H33.2637C33.1683 21.8499 32.9934 21.2941 32.7073 20.6272L29.6393 12.9261H26.6348V25.2002H28.6219V17.6262C28.6219 17.1498 28.6219 16.6099 28.606 15.943C28.5901 15.6096 28.5583 15.3555 28.5424 15.165H28.5901C28.6855 15.6413 28.7967 15.9907 28.8762 16.213L32.5642 25.1685H33.9631L37.6194 16.1336C37.6988 15.9272 37.7783 15.5143 37.8578 15.165H37.9055C37.8578 16.0701 37.826 16.8799 37.8101 17.3721V25.1526H39.9244V12.8944H37.0312L33.8837 20.5955ZM41.9273 16.3559H43.9939V25.1526H41.9273V16.3559ZM42.9765 12.6403C42.6268 12.6403 42.3407 12.7673 42.1022 12.9896C41.8638 13.2119 41.7366 13.4977 41.7366 13.8471C41.7366 14.1805 41.8638 14.4663 42.1022 14.6886C42.3407 14.9109 42.6268 15.0221 42.9765 15.0221C43.3263 15.0221 43.6283 14.8951 43.8508 14.6886C44.0893 14.4663 44.2165 14.1805 44.2165 13.8471C44.2165 13.5136 44.0893 13.2278 43.8508 12.9896C43.6442 12.7673 43.3421 12.6403 42.9765 12.6403ZM51.3223 16.2765C50.9407 16.1971 50.5433 16.1495 50.1618 16.1495C49.2239 16.1495 48.3655 16.3559 47.6501 16.7687C46.9348 17.1816 46.3625 17.7532 45.9969 18.4677C45.6154 19.1981 45.4246 20.0397 45.4246 21.0083C45.4246 21.8499 45.6154 22.5962 45.981 23.2789C46.3466 23.9458 46.8553 24.4857 47.5389 24.8509C48.1906 25.2161 48.9537 25.4067 49.8121 25.4067C50.7977 25.4067 51.6402 25.2002 52.3078 24.8192L52.3237 24.8033V22.8978L52.2443 22.9614C51.9422 23.1837 51.5925 23.3742 51.2428 23.4854C50.8772 23.6124 50.5433 23.6759 50.2572 23.6759C49.4306 23.6759 48.7788 23.4377 48.3178 22.9137C47.8409 22.4056 47.6024 21.707 47.6024 20.8336C47.6024 19.9286 47.8409 19.214 48.3337 18.69C48.8265 18.166 49.4782 17.8961 50.2731 17.8961C50.9407 17.8961 51.6243 18.1184 52.2443 18.563L52.3237 18.6265V16.6099L52.3078 16.5941C52.0376 16.4829 51.7356 16.3559 51.3223 16.2765ZM58.1419 16.213C57.6332 16.213 57.1563 16.3718 56.743 16.7052C56.3933 16.991 56.1548 17.4039 55.9482 17.8961H55.9323V16.3559H53.8657V25.1526H55.9323V20.659C55.9323 19.8968 56.0912 19.2617 56.441 18.8012C56.7907 18.3248 57.2358 18.0866 57.7763 18.0866C57.967 18.0866 58.1578 18.1343 58.3963 18.166C58.6188 18.2295 58.7778 18.2931 58.8891 18.3725L58.9685 18.436V16.3718L58.9208 16.3559C58.7778 16.2606 58.4916 16.213 58.1419 16.213ZM63.7693 16.1653C62.3227 16.1653 61.1623 16.5941 60.3515 17.4356C59.5249 18.2772 59.1275 19.4363 59.1275 20.8971C59.1275 22.2627 59.5408 23.3742 60.3356 24.184C61.1305 24.9779 62.2114 25.3908 63.5627 25.3908C64.9775 25.3908 66.1061 24.9621 66.9169 24.1046C67.7435 23.2472 68.1409 22.1039 68.1409 20.6907C68.1409 19.2934 67.7594 18.1819 66.9804 17.3721C66.2333 16.5623 65.1364 16.1653 63.7693 16.1653ZM65.4226 22.9296C65.041 23.4218 64.437 23.66 63.6898 23.66C62.9427 23.66 62.3386 23.4218 61.9094 22.8978C61.4802 22.4056 61.2735 21.6911 61.2735 20.786C61.2735 19.8492 61.4961 19.1346 61.9094 18.6265C62.3386 18.1184 62.9268 17.8643 63.6739 17.8643C64.4052 17.8643 64.9775 18.1025 65.3908 18.5948C65.8041 19.087 66.0266 19.8015 66.0266 20.7384C65.9948 21.6911 65.82 22.4374 65.4226 22.9296ZM72.7509 20.0079C72.0991 19.738 71.6858 19.5316 71.4951 19.3569C71.3361 19.1981 71.2566 18.9758 71.2566 18.69C71.2566 18.4518 71.352 18.2137 71.5905 18.0549C71.8289 17.8961 72.0991 17.8167 72.4966 17.8167C72.8463 17.8167 73.2119 17.8802 73.5616 17.9755C73.9114 18.0708 74.2293 18.2137 74.4836 18.4042L74.5631 18.4677V16.5305L74.5154 16.5147C74.277 16.4194 73.9591 16.3241 73.5775 16.2447C73.196 16.1812 72.8463 16.1495 72.5602 16.1495C71.5746 16.1495 70.7638 16.3876 70.128 16.9116C69.4921 17.4039 69.1901 18.0708 69.1901 18.8488C69.1901 19.2617 69.2537 19.6269 69.3967 19.9286C69.5398 20.2302 69.7464 20.5161 70.0326 20.7542C70.3187 20.9765 70.732 21.2306 71.3043 21.4688C71.7812 21.6752 72.1468 21.834 72.3694 21.961C72.5919 22.088 72.735 22.2309 72.8463 22.3421C72.9258 22.4691 72.9735 22.6279 72.9735 22.8343C72.9735 23.4218 72.5284 23.7077 71.6223 23.7077C71.2725 23.7077 70.9069 23.6441 70.4777 23.5012C70.0485 23.3583 69.6511 23.1519 69.3172 22.9137L69.2378 22.8502V24.8668L69.2854 24.8827C69.5875 25.0256 69.9531 25.1208 70.3982 25.232C70.8433 25.3114 71.2407 25.3749 71.5905 25.3749C72.6555 25.3749 73.5298 25.1367 74.1498 24.6127C74.7857 24.1046 75.1195 23.4536 75.1195 22.612C75.1195 22.0245 74.9605 21.5005 74.6108 21.1036C74.1498 20.7225 73.5775 20.3255 72.7509 20.0079ZM80.5721 16.1653C79.1255 16.1653 77.965 16.5941 77.1543 17.4356C76.3435 18.2772 75.9302 19.4363 75.9302 20.8971C75.9302 22.2627 76.3435 23.3742 77.1384 24.184C77.9332 24.9779 79.0142 25.3908 80.3654 25.3908C81.7802 25.3908 82.9089 24.9621 83.7196 24.1046C84.5462 23.2472 84.9436 22.1039 84.9436 20.6907C84.9436 19.2934 84.5621 18.1819 83.7832 17.3721C83.036 16.5623 81.9392 16.1653 80.5721 16.1653ZM82.2094 22.9296C81.8279 23.4218 81.2238 23.66 80.4767 23.66C79.7136 23.66 79.1255 23.4218 78.6963 22.8978C78.267 22.4056 78.0604 21.6911 78.0604 20.786C78.0604 19.8492 78.2829 19.1346 78.6963 18.6265C79.1255 18.1184 79.7136 17.8643 80.4608 17.8643C81.1761 17.8643 81.7643 18.1025 82.1776 18.5948C82.5909 19.087 82.8135 19.8015 82.8135 20.7384C82.8135 21.6911 82.6068 22.4374 82.2094 22.9296ZM95.9918 18.0549V16.3559H93.9093V13.7518L93.8457 13.7677L91.8746 14.3552L91.8269 14.3711V16.3559H88.7111V15.2444C88.7111 14.7363 88.8383 14.3393 89.0608 14.0852C89.2834 13.8312 89.6172 13.7042 90.0305 13.7042C90.3167 13.7042 90.6187 13.7677 90.9526 13.9106L91.032 13.9582V12.1639L90.9843 12.1481C90.6982 12.0528 90.3167 11.9893 89.8239 11.9893C89.2039 11.9893 88.6634 12.1322 88.1706 12.3704C87.6778 12.6403 87.3122 13.0055 87.042 13.4977C86.7717 13.9741 86.6287 14.514 86.6287 15.1332V16.3559H85.1821V18.039H86.6287V25.1526H88.7111V18.0549H91.8269V22.5803C91.8269 24.4381 92.7012 25.3749 94.4498 25.3749C94.7359 25.3749 95.038 25.3273 95.3241 25.2796C95.6262 25.2161 95.8487 25.1367 95.9759 25.0732L95.9918 25.0573V23.3583L95.9123 23.4218C95.7851 23.5012 95.6738 23.5647 95.4831 23.6124C95.3241 23.66 95.1811 23.6759 95.0698 23.6759C94.6565 23.6759 94.3703 23.5806 94.1637 23.3424C93.9729 23.1201 93.8775 22.7549 93.8775 22.2151V18.0549H95.9918Z" fill="#737373"/>
<path d="M-0.0078125 8.79736H9.73682V18.5309H-0.0078125V8.79736Z" fill="#F25022"/>
<path d="M10.7559 8.79736H20.5005V18.5309H10.7559V8.79736Z" fill="#7FBA00"/>
<path d="M-0.0078125 19.5452H9.73682V29.2788H-0.0078125V19.5452Z" fill="#00A4EF"/>
<path d="M10.7559 19.5491H20.5005V29.2827H10.7559V19.5491Z" fill="#FFB900"/>
</g>
</g>
<defs>
<clipPath id="clip0_2362_148">
<rect width="96" height="36" fill="white" transform="translate(0 0.799072)"/>
</clipPath>
</defs>
</svg>
