<svg width="96" height="37" viewBox="0 0 96 37" fill="none" xmlns="http://www.w3.org/2000/svg">
<g clip-path="url(#clip0_2362_176)">
<mask id="mask0_2362_176" style="mask-type:luminance" maskUnits="userSpaceOnUse" x="0" y="0" width="96" height="37">
<path d="M96 0.799072H0V36.7991H96V0.799072Z" fill="white"/>
</mask>
<g mask="url(#mask0_2362_176)">
<path d="M17.2982 9.3505C15.7439 8.34643 14.8112 6.63619 14.8057 4.79907H10.8753L10.8698 20.456C10.7976 22.2656 9.26543 23.6779 7.44459 23.6117C5.62375 23.5455 4.2026 22.0118 4.26922 20.2023C4.33584 18.4369 5.79584 17.0466 7.57227 17.0466C7.90535 17.0466 8.23288 17.0962 8.54931 17.2011V13.2124C8.22733 13.1682 7.8998 13.1462 7.57227 13.1406C3.5864 13.1406 0.338867 16.368 0.338867 20.3291C0.338867 24.3013 3.5753 27.5177 7.57227 27.5177C11.5692 27.5177 14.8057 24.3013 14.8057 20.3291V12.3903C16.3989 13.5268 18.3141 14.1392 20.2737 14.1392V10.2332C19.219 10.2332 18.1864 9.92978 17.2982 9.3505Z" fill="black"/>
<path d="M24.0322 10.2557H36.4228L35.2847 13.7756H32.065V26.8065H28.0624V13.7756L24.0322 13.7811V10.2557Z" fill="black"/>
<path d="M56.7295 10.2557H69.4088L68.2707 13.7756H64.7734V26.8065H60.7598V13.7756L56.7295 13.7811V10.2557Z" fill="black"/>
<path d="M37.1846 15.5211H41.1538V26.8086H37.2068L37.1846 15.5211Z" fill="black"/>
<path d="M42.7285 10.205H46.6978V17.912L50.6337 14.0778H55.369L50.395 18.8775L55.9685 26.8052H51.594L47.8746 21.3049L46.6978 22.4414V26.7997H42.7285V10.205Z" fill="black"/>
<path d="M83.0938 10.205H87.063V17.912L90.9989 14.0778H95.7398L90.7657 18.8775L96.3393 26.8052H91.9649L88.2455 21.3049L87.0686 22.4414V26.7997H83.0993V10.205H83.0938Z" fill="black"/>
<path d="M39.1655 14.2279C40.2692 14.2279 41.164 13.3387 41.164 12.2419C41.164 11.145 40.2692 10.2557 39.1655 10.2557C38.0617 10.2557 37.167 11.145 37.167 12.2419C37.167 13.3387 38.0617 14.2279 39.1655 14.2279Z" fill="black"/>
<path d="M74.6783 13.2867C70.9256 13.2867 67.8779 16.31 67.8779 20.0394C67.8779 23.7688 70.9201 26.7976 74.6728 26.7976C78.4255 26.7976 81.4732 23.7743 81.4732 20.0449C81.4787 16.3155 78.4366 13.2923 74.6783 13.2867ZM74.6783 23.3275C72.8519 23.3275 71.3753 21.86 71.3753 20.0449C71.3753 18.2299 72.8519 16.7624 74.6783 16.7624C76.5047 16.7624 77.9814 18.2299 77.9814 20.0449C77.9869 21.86 76.5047 23.3275 74.6783 23.3275Z" fill="black"/>
</g>
</g>
<defs>
<clipPath id="clip0_2362_176">
<rect width="96" height="36" fill="white" transform="translate(0 0.799072)"/>
</clipPath>
</defs>
</svg>
