<svg width="66" height="37" viewBox="0 0 66 37" fill="none" xmlns="http://www.w3.org/2000/svg">
<g clip-path="url(#clip0_2362_135)">
<mask id="mask0_2362_135" style="mask-type:luminance" maskUnits="userSpaceOnUse" x="0" y="0" width="66" height="37">
<path d="M66 0.799072H0V36.7991H66V0.799072Z" fill="white"/>
</mask>
<g mask="url(#mask0_2362_135)">
<path d="M3.47672 20.2761V6.79907H0.214844V20.4456C0.214844 25.5737 3.81561 28.9641 8.47543 28.9641C10.763 28.9641 12.754 28.0741 14.2367 26.5484V28.5827H17.4562V6.79907H14.1943V20.2761C14.1943 23.7513 11.8644 26.0822 8.85669 26.0822C5.80663 26.0398 3.47672 23.7937 3.47672 20.2761ZM20.6757 28.6251H23.7681V26.6332C25.2084 28.1165 27.2418 29.0065 29.4446 29.0065C34.1044 29.0065 37.7899 25.3194 37.7899 20.6999C37.7899 16.0804 34.1044 12.3933 29.4446 12.3933C27.2418 12.3933 25.2508 13.2833 23.8105 14.7666V6.79907H20.6757V28.6251ZM23.7681 20.6999C23.7681 17.6061 26.2251 15.1904 29.2328 15.1904C32.2405 15.1904 34.6975 17.6061 34.6975 20.6999C34.6975 23.7513 32.2405 26.2094 29.2328 26.2094C26.1827 26.2094 23.7681 23.7513 23.7681 20.6999ZM39.6539 20.6575C39.6539 25.4041 43.3393 28.9641 48.0839 28.9641C50.9645 28.9641 53.3368 27.6927 54.9465 25.5737L52.659 23.8784C51.4729 25.4465 49.9055 26.2094 48.0839 26.2094C45.4151 26.2094 43.2546 24.2599 42.831 21.6747H55.7514V20.6575C55.7514 15.9109 52.4048 12.3933 47.8297 12.3933C43.1699 12.3933 39.6539 16.1652 39.6539 20.6575ZM47.745 15.1481C50.0749 15.1481 52.0236 16.7585 52.5743 19.2166H42.8734C43.4664 16.7585 45.4151 15.1481 47.745 15.1481ZM66.2148 15.5295V12.6052H65.1134C63.3766 12.6052 62.1057 13.4105 61.3008 14.6819V12.7324H58.2508V28.6251H61.3856V19.5556C61.3856 17.0976 62.8682 15.4871 64.944 15.4871H66.2148V15.5295Z" fill="black"/>
</g>
</g>
<defs>
<clipPath id="clip0_2362_135">
<rect width="66" height="36" fill="white" transform="translate(0 0.799072)"/>
</clipPath>
</defs>
</svg>
