<svg width="96" height="37" viewBox="0 0 96 37" fill="none" xmlns="http://www.w3.org/2000/svg">
<path d="M14.3964 3.79907C6.44565 3.79907 0 10.2446 0 18.1953C0 26.1464 6.44565 32.5913 14.3964 32.5913C22.348 32.5913 28.7929 26.1464 28.7929 18.1953C28.7929 10.2451 22.3482 3.79907 14.3964 3.79907ZM20.9985 24.5626C20.937 24.6632 20.8564 24.7508 20.761 24.8202C20.6657 24.8897 20.5576 24.9396 20.443 24.9673C20.3283 24.9949 20.2094 24.9996 20.0929 24.9812C19.9764 24.9628 19.8647 24.9216 19.7641 24.86C16.384 22.7953 12.1289 22.3277 7.11765 23.4726C6.88561 23.5254 6.64211 23.4839 6.44067 23.3572C6.23923 23.2305 6.09633 23.029 6.04338 22.797C6.017 22.6822 6.01355 22.5632 6.03321 22.447C6.05287 22.3308 6.09526 22.2196 6.15795 22.1198C6.22064 22.02 6.30241 21.9335 6.39856 21.8654C6.49471 21.7972 6.60337 21.7487 6.7183 21.7226C12.2023 20.4697 16.9063 21.0092 20.7011 23.3282C21.124 23.5878 21.2581 24.1397 20.9985 24.5626ZM22.7606 20.6426C22.4356 21.1708 21.7446 21.3375 21.2168 21.0126C17.3471 18.634 11.4483 17.9452 6.87113 19.3346C6.27752 19.5139 5.65056 19.1793 5.47039 18.5868C5.38443 18.3019 5.41495 17.9945 5.55526 17.7321C5.69558 17.4697 5.93423 17.2736 6.2189 17.1869C11.4472 15.6005 17.947 16.3689 22.391 19.0997C22.9187 19.4246 23.0855 20.1156 22.7606 20.6426ZM22.9118 16.5608C18.272 13.8049 10.6167 13.5515 6.18675 14.896C5.47538 15.1117 4.7231 14.7101 4.50752 13.9988C4.40386 13.657 4.44018 13.2881 4.60849 12.9731C4.77681 12.6581 5.06333 12.4228 5.40507 12.319C10.4904 10.7752 18.9441 11.0735 24.2861 14.2448C24.4384 14.3348 24.5713 14.4541 24.6774 14.5956C24.7835 14.7371 24.8607 14.8982 24.9044 15.0696C24.9482 15.241 24.9577 15.4194 24.9324 15.5944C24.9072 15.7695 24.8476 15.9379 24.7571 16.0899C24.3789 16.7298 23.5496 16.9407 22.9118 16.5608ZM39.1678 17.0889C36.682 16.4961 36.2401 16.0801 36.2401 15.2059C36.2401 14.3801 37.0172 13.8243 38.1741 13.8243C39.295 13.8243 40.4056 14.2463 41.5711 15.1152C41.6055 15.1415 41.6502 15.152 41.6932 15.1451C41.7148 15.142 41.7355 15.1345 41.7542 15.1231C41.7728 15.1117 41.7889 15.0966 41.8015 15.0787L43.0152 13.3679C43.0391 13.3339 43.0493 13.2922 43.0435 13.251C43.0378 13.2099 43.0166 13.1725 42.9842 13.1464C41.5969 12.0337 40.0359 11.4927 38.2102 11.4927C35.5267 11.4927 33.6512 13.1033 33.6512 15.4078C33.6512 17.879 35.2688 18.754 38.0641 19.4295C40.4417 19.9773 40.8439 20.4363 40.8439 21.2567C40.8439 22.1661 40.0325 22.7317 38.726 22.7317C37.275 22.7317 36.0906 22.2418 34.7669 21.0968C34.7339 21.0689 34.6914 21.0548 34.6482 21.0573C34.6035 21.0607 34.564 21.0814 34.5365 21.114L33.175 22.7334C33.1182 22.8022 33.1251 22.9019 33.1904 22.9603C34.7308 24.3356 36.6252 25.0611 38.671 25.0611C41.5625 25.0611 43.4312 23.4812 43.4312 21.0349C43.4364 18.9708 42.2003 17.8276 39.1729 17.0911L39.1678 17.0889ZM49.9742 14.6374C48.7209 14.6374 47.6929 15.1312 46.8436 16.1429V15.0041C46.8438 14.9611 46.8269 14.9197 46.7966 14.8891C46.7663 14.8585 46.7251 14.8412 46.682 14.841H44.4558C44.3664 14.841 44.2942 14.9142 44.2942 15.0041V27.657C44.2942 27.7464 44.3664 27.8203 44.4558 27.8203H46.682C46.7714 27.8203 46.8436 27.7464 46.8436 27.657V23.6635C47.6929 24.6141 48.7209 25.08 49.9742 25.08C52.3036 25.08 54.6622 23.287 54.6622 19.8592C54.6656 16.4308 52.307 14.6373 49.9759 14.6373L49.9742 14.6374ZM52.0732 19.8592C52.0732 21.604 50.9987 22.8228 49.4584 22.8228C47.937 22.8228 46.7886 21.549 46.7886 19.8592C46.7886 18.1693 47.937 16.8958 49.4584 16.8958C50.973 16.8957 52.0732 18.1418 52.0732 19.8592ZM60.7049 14.6374C57.705 14.6374 55.355 16.9472 55.355 19.8965C55.355 22.8142 57.6895 25.0989 60.6688 25.0989C63.6789 25.0989 66.0358 22.797 66.0358 19.8592C66.0358 16.9314 63.6944 14.6374 60.7049 14.6374ZM60.7049 22.84C59.1095 22.84 57.9061 21.5576 57.9061 19.8584C57.9061 18.1515 59.0683 16.9128 60.6688 16.9128C62.2744 16.9128 63.4847 18.1948 63.4847 19.8957C63.4847 21.6023 62.3157 22.84 60.7049 22.84ZM72.4413 14.841H69.9915V12.3369C69.9916 12.3156 69.9875 12.2945 69.9794 12.2748C69.9714 12.255 69.9595 12.2371 69.9445 12.222C69.9295 12.2068 69.9116 12.1948 69.892 12.1866C69.8723 12.1783 69.8512 12.174 69.8299 12.1739H67.6037C67.5143 12.1739 67.4404 12.2472 67.4404 12.3369V14.841H66.3711C66.2817 14.841 66.2095 14.9142 66.2095 15.0041V16.917C66.2095 17.0067 66.2817 17.0801 66.3711 17.0801H67.4404V22.0303C67.4404 24.0296 68.4357 25.0439 70.4007 25.0439C71.1983 25.0439 71.8602 24.8789 72.4842 24.5247C72.5358 24.4972 72.5668 24.4422 72.5668 24.3838V22.5615C72.5668 22.5065 72.5375 22.4532 72.4894 22.424C72.466 22.409 72.439 22.4005 72.4112 22.3993C72.3835 22.3981 72.3559 22.4042 72.3312 22.4171C71.9032 22.632 71.4889 22.7317 71.0247 22.7317C70.3113 22.7317 69.9915 22.4068 69.9915 21.6813V17.081H72.4413C72.5307 17.081 72.6029 17.0077 72.6029 16.9178V15.0051C72.6036 14.9838 72.6 14.9625 72.5922 14.9426C72.5845 14.9227 72.5728 14.9046 72.5578 14.8893C72.5429 14.8741 72.525 14.862 72.5053 14.8539C72.4855 14.8458 72.4643 14.8417 72.443 14.842L72.4413 14.841ZM80.9749 14.8508V14.5432C80.9749 13.6385 81.3222 13.235 82.0992 13.235C82.5634 13.235 82.9365 13.3271 83.3542 13.4664C83.4058 13.4825 83.4591 13.4744 83.5003 13.4437C83.5213 13.4286 83.5383 13.4087 83.5499 13.3856C83.5616 13.3626 83.5676 13.3371 83.5674 13.3113V11.4358C83.5678 11.4007 83.5567 11.3665 83.536 11.3383C83.5152 11.3101 83.4858 11.2895 83.4522 11.2795C83.0121 11.1483 82.4482 11.0137 81.6024 11.0137C79.5481 11.0137 78.4599 12.1714 78.4599 14.3603V14.8313H77.3906C77.3012 14.8313 77.2273 14.9046 77.2273 14.9943V16.917C77.2273 17.0067 77.3012 17.0801 77.3906 17.0801H78.4599V24.7138C78.4599 24.805 78.5338 24.8772 78.6232 24.8772H80.8477C80.9388 24.8772 81.011 24.805 81.011 24.7138V17.0806H83.0895L86.2733 24.7138C85.9122 25.515 85.5564 25.6748 85.0716 25.6748C84.6796 25.6748 84.2653 25.5579 83.8441 25.3259C83.8042 25.3057 83.7582 25.3014 83.7152 25.3138C83.6722 25.3293 83.6361 25.3602 83.6189 25.4015L82.8642 27.057C82.8281 27.1361 82.8591 27.2272 82.9347 27.2685C83.7221 27.6948 84.4321 27.877 85.3105 27.877C86.954 27.877 87.8634 27.1103 88.6628 25.0508L92.524 15.0736C92.534 15.0489 92.5377 15.0221 92.5347 14.9956C92.5317 14.9692 92.5221 14.9439 92.5068 14.9221C92.4922 14.9003 92.4726 14.8824 92.4495 14.8701C92.4264 14.8577 92.4006 14.8513 92.3744 14.8513H90.057C89.9865 14.8513 89.9247 14.8955 89.9023 14.9606L87.5282 21.7398L84.9289 14.9562C84.9173 14.9254 84.8966 14.8989 84.8696 14.8802C84.8426 14.8615 84.8105 14.8514 84.7776 14.8513L80.9749 14.8508ZM76.0273 14.841H73.8011C73.7117 14.841 73.6378 14.9142 73.6378 15.0041V24.7138C73.6378 24.805 73.7117 24.8772 73.8011 24.8772H76.0273C76.1167 24.8772 76.1906 24.805 76.1906 24.7138V15.0048C76.1907 14.9834 76.1865 14.9621 76.1783 14.9423C76.1701 14.9225 76.1581 14.9044 76.1429 14.8893C76.1277 14.8741 76.1097 14.8621 76.0899 14.8539C76.07 14.8458 76.0488 14.8409 76.0273 14.841ZM74.9271 10.4196C74.0452 10.4196 73.33 11.1334 73.33 12.0151C73.33 12.8973 74.0452 13.612 74.9271 13.612C75.809 13.612 76.5224 12.8973 76.5224 12.0151C76.5224 11.1335 75.8073 10.4196 74.9271 10.4196ZM94.4253 17.9631C93.5451 17.9631 92.8592 17.2556 92.8592 16.3966C92.8592 15.5376 93.5537 14.8221 94.4339 14.8221C95.3141 14.8221 96 15.5293 96 16.3877C96 17.2467 95.3055 17.9631 94.4253 17.9631ZM94.4339 14.9778C93.6311 14.9778 93.0242 15.6156 93.0242 16.3966C93.0242 17.1772 93.6276 17.8064 94.4253 17.8064C95.2281 17.8064 95.835 17.1692 95.835 16.3877C95.835 15.607 95.2316 14.9778 94.4339 14.9778ZM94.7812 16.5487L95.2247 17.169H94.8499L94.4511 16.6H94.109V17.169H93.7961V15.5248H94.5284C94.9118 15.5248 95.1628 15.7203 95.1628 16.0493C95.1645 16.3189 95.0081 16.4836 94.7829 16.5487H94.7812ZM94.5164 15.8069H94.109V16.327H94.5164C94.7193 16.327 94.8413 16.2274 94.8413 16.0667C94.8413 15.8975 94.7193 15.8069 94.5164 15.8069Z" fill="white"/>
</svg>
