<svg width="84" height="37" viewBox="0 0 84 37" fill="none" xmlns="http://www.w3.org/2000/svg">
<path d="M20.6588 15.9565H10.8511V18.862H17.7976C17.4563 22.9488 14.052 24.6731 10.8511 24.6731C6.74135 24.6731 3.1779 21.4493 3.1779 16.931C3.1779 12.5259 6.58385 9.14457 10.8511 9.14457C14.1422 9.14457 16.0962 11.2561 16.0962 11.2561L18.1388 9.14457C18.1388 9.14457 15.5286 6.23901 10.7609 6.23901C4.69877 6.23901 0 11.3709 0 16.8867C0 22.3123 4.42642 27.6017 10.92 27.6017C16.6409 27.6017 20.818 23.674 20.818 17.8842C20.818 16.6603 20.6588 15.9565 20.6588 15.9565Z" fill="#4285F4"/>
<path d="M28.6726 13.845C24.6547 13.845 21.7705 16.9999 21.7705 20.6552C21.7705 24.3778 24.5629 27.5803 28.7169 27.5803C32.4855 27.5803 35.5502 24.6977 35.5502 20.7471C35.5748 16.1829 31.9884 13.845 28.6726 13.845ZM28.7186 16.5471C30.6939 16.5471 32.5773 18.1369 32.5773 20.7241C32.5773 23.2441 30.7152 24.9012 28.7186 24.9012C26.5169 24.9012 24.7909 23.1523 24.7909 20.7241C24.7909 18.3173 26.4939 16.5471 28.7186 16.5471Z" fill="#EA4335"/>
<path d="M43.7029 13.845C39.685 13.845 36.8008 16.9999 36.8008 20.6552C36.8008 24.3778 39.5931 27.5803 43.7472 27.5803C47.5157 27.5803 50.5804 24.6977 50.5804 20.7471C50.5821 16.1829 46.994 13.845 43.7029 13.845ZM43.7489 16.5471C45.7242 16.5471 47.6076 18.1369 47.6076 20.7241C47.6076 23.2441 45.7455 24.9012 43.7489 24.9012C41.5471 24.9012 39.8212 23.1523 39.8212 20.7241C39.7982 18.3173 41.5225 16.5471 43.7489 16.5471Z" fill="#FBBC05"/>
<path d="M58.4139 13.845C54.7127 13.845 51.8301 17.0688 51.8301 20.7012C51.8301 24.8323 55.1901 27.5803 58.368 27.5803C60.3203 27.5803 61.3654 26.8092 62.1365 25.9003V27.262C62.1365 29.6229 60.7059 31.0535 58.5271 31.0535C56.4386 31.0535 55.3722 29.4867 55.008 28.6024L52.3748 29.7148C53.305 31.6901 55.1901 33.7557 58.5501 33.7557C62.2284 33.7557 65.0207 31.4407 65.0207 26.6042V14.2535H62.1382V15.4118C61.2506 14.4799 60.025 13.845 58.4139 13.845ZM58.6863 16.5471C60.5024 16.5471 62.3646 18.0909 62.3646 20.7241C62.3646 23.4033 60.5025 24.8782 58.6633 24.8782C56.688 24.8782 54.8718 23.2884 54.8718 20.7471C54.8488 18.1123 56.7569 16.5471 58.6863 16.5471Z" fill="#4285F4"/>
<path d="M77.8012 13.845C74.3279 13.845 71.3994 16.6144 71.3994 20.7012C71.3994 25.0374 74.6692 27.6033 78.1424 27.6033C81.048 27.6033 82.8412 26.0135 83.8863 24.5845L81.5024 22.9948C80.8888 23.948 79.8454 24.8799 78.1424 24.8799C76.213 24.8799 75.3271 23.8134 74.7824 22.7913L83.9995 18.9752L83.522 17.8629C82.6377 15.6611 80.5492 13.845 77.8012 13.845ZM77.9373 16.4782C79.1858 16.4782 80.0948 17.1361 80.4803 17.9531L74.3279 20.5191C74.0556 18.5224 75.9407 16.4782 77.9373 16.4782Z" fill="#EA4335"/>
<path d="M70.0363 6.94275H67.0176V27.1931H70.0363V6.94275Z" fill="#34A853"/>
</svg>
