<svg width="84" height="37" viewBox="0 0 84 37" fill="none" xmlns="http://www.w3.org/2000/svg">
<path d="M79.5111 17.5979L84 29.4791C82.6843 29.2987 81.3428 29.041 80.0012 28.8348L77.473 22.2627L74.8673 28.2936C73.6032 28.0874 72.3391 28.0101 71.0491 27.8554L75.6155 17.469L71.4877 6.79907H75.3317L77.6536 12.7526L80.1302 6.79907H84L79.5111 17.5979ZM68.4693 6.79907H64.9865V27.3915C66.1216 27.4688 67.3084 27.5204 68.4693 27.6492V6.79907ZM61.9939 27.1596C58.8206 26.9534 55.6474 26.7472 52.4226 26.6956V6.79907H55.957V23.3452C57.9951 23.3967 60.0332 23.5514 61.9939 23.6545V27.1596ZM48.6302 18.3968H43.7801V26.4637H40.2715V6.79907H50.2039V10.3299H43.7801V14.8402H48.6302V18.3968ZM34.312 10.3299V26.6441C33.1253 26.6441 31.9128 26.6441 30.7518 26.6956V10.3299H27.0885V6.79907H38.0012V10.3299H34.312ZM23.2703 18.5772C21.7224 18.5772 19.8649 18.5772 18.5491 18.6546V23.9122C20.6388 23.7576 22.7027 23.6029 24.8182 23.5256V26.9276L15.0147 27.7008V6.79907H24.8182V10.3299H18.5491V15.0979C19.9165 15.0979 22.0319 15.0206 23.2703 15.0206V18.5772ZM3.61179 16.5927V28.9636C2.34767 29.1183 1.21253 29.2987 0 29.4791V6.79907H3.37961L7.99754 19.6855V6.79907H11.5577V28.0101C10.2936 28.2162 9.02948 28.2936 7.68796 28.474L3.61179 16.5927Z" fill="#D81F26"/>
</svg>
